<svg xmlns="http://www.w3.org/2000/svg" xmlns:xlink="http://www.w3.org/1999/xlink" width="500" zoomAndPan="magnify" viewBox="0 0 375 54.75" height="73" preserveAspectRatio="xMidYMid meet" version="1.0"><defs><g/><clipPath id="db423fa300"><path d="M 0.851562 0 L 374.148438 0 L 374.148438 54.488281 L 0.851562 54.488281 Z M 0.851562 0 " clip-rule="nonzero"/></clipPath><clipPath id="a491e3c256"><path d="M 119.230469 0 L 255.769531 0 L 374.148438 54.488281 L 0.851562 54.488281 Z M 119.230469 0 " clip-rule="nonzero"/></clipPath><clipPath id="09766b6664"><path d="M 0.851562 0 L 374.148438 0 L 374.148438 54.488281 L 0.851562 54.488281 Z M 0.851562 0 " clip-rule="nonzero"/></clipPath><clipPath id="cdd2b289c1"><path d="M 119.230469 0 L 255.769531 0 L 374.148438 54.488281 L 0.851562 54.488281 Z M 119.230469 0 " clip-rule="nonzero"/></clipPath><clipPath id="74ac56e911"><rect x="0" width="375" y="0" height="55"/></clipPath></defs><g clip-path="url(#db423fa300)"><g clip-path="url(#a491e3c256)"><g transform="matrix(1, 0, 0, 1, 0, -0.000000000000013281)"><g clip-path="url(#74ac56e911)"><g clip-path="url(#09766b6664)"><g clip-path="url(#cdd2b289c1)"><path fill="#f94b00" d="M 0.851562 0 L 374.191406 0 L 374.191406 54.488281 L 0.851562 54.488281 Z M 0.851562 0 " fill-opacity="1" fill-rule="nonzero"/></g></g></g></g></g></g><g fill="#ffffff" fill-opacity="1"><g transform="translate(105.9816, 34.343183)"><g><path d="M 6.140625 -13.796875 C 7.921875 -13.796875 9.21875 -13.410156 10.03125 -12.640625 C 10.851562 -11.878906 11.265625 -10.832031 11.265625 -9.5 C 11.265625 -8.894531 11.171875 -8.316406 10.984375 -7.765625 C 10.804688 -7.210938 10.507812 -6.722656 10.09375 -6.296875 C 9.6875 -5.867188 9.140625 -5.53125 8.453125 -5.28125 C 7.765625 -5.03125 6.921875 -4.90625 5.921875 -4.90625 L 4.65625 -4.90625 L 4.65625 0 L 1.734375 0 L 1.734375 -13.796875 Z M 6 -11.40625 L 4.65625 -11.40625 L 4.65625 -7.296875 L 5.625 -7.296875 C 6.175781 -7.296875 6.648438 -7.367188 7.046875 -7.515625 C 7.453125 -7.660156 7.765625 -7.882812 7.984375 -8.1875 C 8.203125 -8.5 8.3125 -8.898438 8.3125 -9.390625 C 8.3125 -10.066406 8.125 -10.570312 7.75 -10.90625 C 7.375 -11.238281 6.789062 -11.40625 6 -11.40625 Z M 6 -11.40625 "/></g></g></g><g fill="#ffffff" fill-opacity="1"><g transform="translate(118.11197, 34.343183)"><g><path d="M 1.734375 0 L 1.734375 -13.796875 L 4.65625 -13.796875 L 4.65625 0 Z M 1.734375 0 "/></g></g></g><g fill="#ffffff" fill-opacity="1"><g transform="translate(124.507298, 34.343183)"><g><path d="M 12.890625 0 L 9.546875 0 L 6.34375 -5.21875 L 3.140625 0 L 0 0 L 4.578125 -7.109375 L 0.296875 -13.796875 L 3.515625 -13.796875 L 6.5 -8.828125 L 9.40625 -13.796875 L 12.5625 -13.796875 L 8.234375 -6.953125 Z M 12.890625 0 "/></g></g></g><g fill="#ffffff" fill-opacity="1"><g transform="translate(137.392279, 34.343183)"><g><path d="M 9.6875 0 L 1.734375 0 L 1.734375 -13.796875 L 9.6875 -13.796875 L 9.6875 -11.40625 L 4.65625 -11.40625 L 4.65625 -8.375 L 9.328125 -8.375 L 9.328125 -5.96875 L 4.65625 -5.96875 L 4.65625 -2.421875 L 9.6875 -2.421875 Z M 9.6875 0 "/></g></g></g><g fill="#ffffff" fill-opacity="1"><g transform="translate(148.211513, 34.343183)"><g><path d="M 1.734375 0 L 1.734375 -13.796875 L 4.65625 -13.796875 L 4.65625 -2.421875 L 10.265625 -2.421875 L 10.265625 0 Z M 1.734375 0 "/></g></g></g><g fill="#ffffff" fill-opacity="1"><g transform="translate(159.125073, 34.343183)"><g/></g></g><g fill="#ffffff" fill-opacity="1"><g transform="translate(164.143236, 34.343183)"><g><path d="M 12.828125 0 L 9.515625 0 L 5.90625 -5.8125 L 4.65625 -4.921875 L 4.65625 0 L 1.734375 0 L 1.734375 -13.796875 L 4.65625 -13.796875 L 4.65625 -7.484375 C 4.851562 -7.753906 5.046875 -8.023438 5.234375 -8.296875 C 5.421875 -8.566406 5.613281 -8.835938 5.8125 -9.109375 L 9.546875 -13.796875 L 12.796875 -13.796875 L 7.984375 -7.6875 Z M 12.828125 0 "/></g></g></g><g fill="#ffffff" fill-opacity="1"><g transform="translate(176.971621, 34.343183)"><g><path d="M 9.6875 0 L 1.734375 0 L 1.734375 -13.796875 L 9.6875 -13.796875 L 9.6875 -11.40625 L 4.65625 -11.40625 L 4.65625 -8.375 L 9.328125 -8.375 L 9.328125 -5.96875 L 4.65625 -5.96875 L 4.65625 -2.421875 L 9.6875 -2.421875 Z M 9.6875 0 "/></g></g></g><g fill="#ffffff" fill-opacity="1"><g transform="translate(187.790855, 34.343183)"><g><path d="M 9.6875 0 L 1.734375 0 L 1.734375 -13.796875 L 9.6875 -13.796875 L 9.6875 -11.40625 L 4.65625 -11.40625 L 4.65625 -8.375 L 9.328125 -8.375 L 9.328125 -5.96875 L 4.65625 -5.96875 L 4.65625 -2.421875 L 9.6875 -2.421875 Z M 9.6875 0 "/></g></g></g><g fill="#ffffff" fill-opacity="1"><g transform="translate(198.610088, 34.343183)"><g><path d="M 6.140625 -13.796875 C 7.921875 -13.796875 9.21875 -13.410156 10.03125 -12.640625 C 10.851562 -11.878906 11.265625 -10.832031 11.265625 -9.5 C 11.265625 -8.894531 11.171875 -8.316406 10.984375 -7.765625 C 10.804688 -7.210938 10.507812 -6.722656 10.09375 -6.296875 C 9.6875 -5.867188 9.140625 -5.53125 8.453125 -5.28125 C 7.765625 -5.03125 6.921875 -4.90625 5.921875 -4.90625 L 4.65625 -4.90625 L 4.65625 0 L 1.734375 0 L 1.734375 -13.796875 Z M 6 -11.40625 L 4.65625 -11.40625 L 4.65625 -7.296875 L 5.625 -7.296875 C 6.175781 -7.296875 6.648438 -7.367188 7.046875 -7.515625 C 7.453125 -7.660156 7.765625 -7.882812 7.984375 -8.1875 C 8.203125 -8.5 8.3125 -8.898438 8.3125 -9.390625 C 8.3125 -10.066406 8.125 -10.570312 7.75 -10.90625 C 7.375 -11.238281 6.789062 -11.40625 6 -11.40625 Z M 6 -11.40625 "/></g></g></g><g fill="#ffffff" fill-opacity="1"><g transform="translate(210.740459, 34.343183)"><g><path d="M 9.875 -3.828125 C 9.875 -3.015625 9.675781 -2.304688 9.28125 -1.703125 C 8.882812 -1.097656 8.304688 -0.628906 7.546875 -0.296875 C 6.796875 0.0234375 5.878906 0.1875 4.796875 0.1875 C 4.316406 0.1875 3.847656 0.15625 3.390625 0.09375 C 2.929688 0.03125 2.492188 -0.0625 2.078125 -0.1875 C 1.660156 -0.3125 1.265625 -0.460938 0.890625 -0.640625 L 0.890625 -3.359375 C 1.546875 -3.066406 2.222656 -2.804688 2.921875 -2.578125 C 3.628906 -2.347656 4.328125 -2.234375 5.015625 -2.234375 C 5.492188 -2.234375 5.878906 -2.296875 6.171875 -2.421875 C 6.460938 -2.546875 6.675781 -2.71875 6.8125 -2.9375 C 6.945312 -3.15625 7.015625 -3.40625 7.015625 -3.6875 C 7.015625 -4.03125 6.894531 -4.320312 6.65625 -4.5625 C 6.425781 -4.8125 6.109375 -5.046875 5.703125 -5.265625 C 5.296875 -5.484375 4.835938 -5.710938 4.328125 -5.953125 C 4.003906 -6.109375 3.65625 -6.289062 3.28125 -6.5 C 2.90625 -6.71875 2.546875 -6.984375 2.203125 -7.296875 C 1.867188 -7.617188 1.59375 -8.003906 1.375 -8.453125 C 1.15625 -8.898438 1.046875 -9.4375 1.046875 -10.0625 C 1.046875 -10.894531 1.234375 -11.601562 1.609375 -12.1875 C 1.992188 -12.769531 2.535156 -13.21875 3.234375 -13.53125 C 3.929688 -13.84375 4.757812 -14 5.71875 -14 C 6.4375 -14 7.117188 -13.914062 7.765625 -13.75 C 8.421875 -13.582031 9.101562 -13.34375 9.8125 -13.03125 L 8.875 -10.75 C 8.238281 -11.007812 7.664062 -11.207031 7.15625 -11.34375 C 6.65625 -11.488281 6.144531 -11.5625 5.625 -11.5625 C 5.257812 -11.5625 4.945312 -11.503906 4.6875 -11.390625 C 4.425781 -11.273438 4.226562 -11.109375 4.09375 -10.890625 C 3.96875 -10.679688 3.90625 -10.441406 3.90625 -10.171875 C 3.90625 -9.835938 4 -9.554688 4.1875 -9.328125 C 4.382812 -9.109375 4.675781 -8.894531 5.0625 -8.6875 C 5.445312 -8.476562 5.929688 -8.238281 6.515625 -7.96875 C 7.210938 -7.632812 7.8125 -7.285156 8.3125 -6.921875 C 8.8125 -6.554688 9.195312 -6.128906 9.46875 -5.640625 C 9.738281 -5.160156 9.875 -4.554688 9.875 -3.828125 Z M 9.875 -3.828125 "/></g></g></g><g fill="#ffffff" fill-opacity="1"><g transform="translate(221.380472, 34.343183)"><g><path d="M 10.1875 0 L 9.1875 -3.28125 L 4.15625 -3.28125 L 3.15625 0 L 0 0 L 4.875 -13.859375 L 8.453125 -13.859375 L 13.328125 0 Z M 8.484375 -5.734375 L 7.484375 -8.953125 C 7.421875 -9.160156 7.335938 -9.429688 7.234375 -9.765625 C 7.128906 -10.109375 7.023438 -10.453125 6.921875 -10.796875 C 6.816406 -11.148438 6.734375 -11.457031 6.671875 -11.71875 C 6.609375 -11.457031 6.519531 -11.132812 6.40625 -10.75 C 6.300781 -10.375 6.195312 -10.015625 6.09375 -9.671875 C 6 -9.328125 5.925781 -9.085938 5.875 -8.953125 L 4.890625 -5.734375 Z M 8.484375 -5.734375 "/></g></g></g><g fill="#ffffff" fill-opacity="1"><g transform="translate(234.708787, 34.343183)"><g><path d="M 12.828125 0 L 9.515625 0 L 5.90625 -5.8125 L 4.65625 -4.921875 L 4.65625 0 L 1.734375 0 L 1.734375 -13.796875 L 4.65625 -13.796875 L 4.65625 -7.484375 C 4.851562 -7.753906 5.046875 -8.023438 5.234375 -8.296875 C 5.421875 -8.566406 5.613281 -8.835938 5.8125 -9.109375 L 9.546875 -13.796875 L 12.796875 -13.796875 L 7.984375 -7.6875 Z M 12.828125 0 "/></g></g></g><g fill="#ffffff" fill-opacity="1"><g transform="translate(247.537173, 34.343183)"><g><path d="M 9.6875 0 L 1.734375 0 L 1.734375 -13.796875 L 9.6875 -13.796875 L 9.6875 -11.40625 L 4.65625 -11.40625 L 4.65625 -8.375 L 9.328125 -8.375 L 9.328125 -5.96875 L 4.65625 -5.96875 L 4.65625 -2.421875 L 9.6875 -2.421875 Z M 9.6875 0 "/></g></g></g><g fill="#ffffff" fill-opacity="1"><g transform="translate(258.356407, 34.343183)"><g><path d="M 9.875 -3.828125 C 9.875 -3.015625 9.675781 -2.304688 9.28125 -1.703125 C 8.882812 -1.097656 8.304688 -0.628906 7.546875 -0.296875 C 6.796875 0.0234375 5.878906 0.1875 4.796875 0.1875 C 4.316406 0.1875 3.847656 0.15625 3.390625 0.09375 C 2.929688 0.03125 2.492188 -0.0625 2.078125 -0.1875 C 1.660156 -0.3125 1.265625 -0.460938 0.890625 -0.640625 L 0.890625 -3.359375 C 1.546875 -3.066406 2.222656 -2.804688 2.921875 -2.578125 C 3.628906 -2.347656 4.328125 -2.234375 5.015625 -2.234375 C 5.492188 -2.234375 5.878906 -2.296875 6.171875 -2.421875 C 6.460938 -2.546875 6.675781 -2.71875 6.8125 -2.9375 C 6.945312 -3.15625 7.015625 -3.40625 7.015625 -3.6875 C 7.015625 -4.03125 6.894531 -4.320312 6.65625 -4.5625 C 6.425781 -4.8125 6.109375 -5.046875 5.703125 -5.265625 C 5.296875 -5.484375 4.835938 -5.710938 4.328125 -5.953125 C 4.003906 -6.109375 3.65625 -6.289062 3.28125 -6.5 C 2.90625 -6.71875 2.546875 -6.984375 2.203125 -7.296875 C 1.867188 -7.617188 1.59375 -8.003906 1.375 -8.453125 C 1.15625 -8.898438 1.046875 -9.4375 1.046875 -10.0625 C 1.046875 -10.894531 1.234375 -11.601562 1.609375 -12.1875 C 1.992188 -12.769531 2.535156 -13.21875 3.234375 -13.53125 C 3.929688 -13.84375 4.757812 -14 5.71875 -14 C 6.4375 -14 7.117188 -13.914062 7.765625 -13.75 C 8.421875 -13.582031 9.101562 -13.34375 9.8125 -13.03125 L 8.875 -10.75 C 8.238281 -11.007812 7.664062 -11.207031 7.15625 -11.34375 C 6.65625 -11.488281 6.144531 -11.5625 5.625 -11.5625 C 5.257812 -11.5625 4.945312 -11.503906 4.6875 -11.390625 C 4.425781 -11.273438 4.226562 -11.109375 4.09375 -10.890625 C 3.96875 -10.679688 3.90625 -10.441406 3.90625 -10.171875 C 3.90625 -9.835938 4 -9.554688 4.1875 -9.328125 C 4.382812 -9.109375 4.675781 -8.894531 5.0625 -8.6875 C 5.445312 -8.476562 5.929688 -8.238281 6.515625 -7.96875 C 7.210938 -7.632812 7.8125 -7.285156 8.3125 -6.921875 C 8.8125 -6.554688 9.195312 -6.128906 9.46875 -5.640625 C 9.738281 -5.160156 9.875 -4.554688 9.875 -3.828125 Z M 9.875 -3.828125 "/></g></g></g></svg>